# MagicaVoxel @ Ephtracy

# group
o 

# material
mtllib reboy.mtl
usemtl palette

# normals
vn -1 0 0
vn 1 0 0
vn 0 0 1
vn 0 0 -1
vn 0 -1 0
vn 0 1 0

# texcoords
vt 0.0214844 0.5
vt 0.0332031 0.5
vt 0.0683594 0.5
vt 0.251953 0.5
vt 0.521484 0.5
vt 0.623047 0.5
vt 0.841797 0.5
vt 0.958984 0.5
vt 0.994141 0.5

# verts
v -1.8 2.6 0.1
v -1.8 2.6 -0.3
v -1.8 2.9 0.1
v -1.8 2.9 -0.3
v -0.7 3.2 0.3
v -0.7 3.2 -0.3
v -0.7 3.8 0.3
v -0.7 3.8 -0.3
v -0.6 0.1 -0.1
v -0.6 0.1 -0.3
v -0.6 0.2 -0.3
v -0.6 0.2 -0.4
v -0.6 0.3 -0.1
v -0.6 0.3 -0.3
v -0.6 0.4 -0.3
v -0.6 0.4 -0.4
v -0.6 1 0.4
v -0.6 1 -0.5
v -0.6 1.8 0.4
v -0.6 1.8 -0.5
v -0.6 2.6 0.1
v -0.6 2.6 -0.3
v -0.6 2.9 0.4
v -0.6 2.9 0.1
v -0.6 2.9 -0.3
v -0.6 2.9 -0.5
v -0.6 3.1 0.5
v -0.6 3.1 0.3
v -0.6 3.1 -0.5
v -0.6 3.2 0.4
v -0.6 3.2 0.3
v -0.6 3.2 -0.3
v -0.6 3.5 0.5
v -0.6 3.5 0.4
v -0.6 3.8 0.3
v -0.6 3.8 -0.3
v -0.6 3.9 0.5
v -0.6 3.9 -0.5
v -0.5 0 0.4
v -0.5 0 -0.3
v -0.5 0.1 -0.1
v -0.5 0.1 -0.3
v -0.5 0.2 0.4
v -0.5 0.2 0.1
v -0.5 0.3 0.1
v -0.5 0.3 -0.1
v -0.5 0.3 -0.3
v -0.5 0.4 -0.3
v -0.5 1 0.1
v -0.5 1 -0.3
v -0.5 2.9 0.3
v -0.5 2.9 -0.4
v -0.5 3 0.5
v -0.5 3 0.3
v -0.5 3 -0.4
v -0.5 3 -0.5
v -0.5 3.1 0.5
v -0.5 3.1 0.3
v -0.5 3.1 -0.5
v -0.5 3.1 -0.6
v -0.5 3.8 -0.5
v -0.5 3.8 -0.6
v -0.5 3.9 0.5
v -0.5 3.9 -0.5
v -0.5 4 0.5
v -0.5 4 -0.5
v 0.1 1 0.4
v 0.1 1 -0.5
v 0.1 1.3 0.4
v 0.1 1.3 -0.5
v 0.2 0 0.4
v 0.2 0 -0.3
v 0.2 0.2 0.4
v 0.2 0.2 0.1
v 0.2 0.3 0.1
v 0.2 0.3 -0.3
v 0.2 1 0.1
v 0.2 1 -0.3
v 0.5 0.2 -0.3
v 0.5 0.2 -0.4
v 0.5 0.3 -0.3
v 0.5 0.4 -0.3
v 0.5 0.4 -0.4
v -0.5 0.2 -0.3
v -0.5 0.2 -0.4
v -0.5 0.3 -0.3
v -0.5 0.4 -0.3
v -0.5 0.4 -0.4
v -0.2 0 0.4
v -0.2 0 -0.3
v -0.2 0.2 0.4
v -0.2 0.2 0.1
v -0.2 0.3 0.1
v -0.2 0.3 -0.3
v -0.2 1 0.1
v -0.2 1 -0.3
v -0.0999999 1 0.4
v -0.0999999 1 -0.5
v -0.0999999 1.3 0.4
v -0.0999999 1.3 -0.5
v 0.5 0 0.4
v 0.5 0 -0.3
v 0.5 0.1 -0.1
v 0.5 0.1 -0.3
v 0.5 0.2 0.4
v 0.5 0.2 0.1
v 0.5 0.3 0.1
v 0.5 0.3 -0.1
v 0.5 0.3 -0.3
v 0.5 0.4 -0.3
v 0.5 1 0.1
v 0.5 1 -0.3
v 0.5 2.9 0.3
v 0.5 2.9 -0.4
v 0.5 3 0.5
v 0.5 3 0.3
v 0.5 3 -0.4
v 0.5 3 -0.5
v 0.5 3.1 0.5
v 0.5 3.1 0.3
v 0.5 3.1 -0.5
v 0.5 3.1 -0.6
v 0.5 3.8 -0.5
v 0.5 3.8 -0.6
v 0.5 3.9 0.5
v 0.5 3.9 -0.5
v 0.5 4 0.5
v 0.5 4 -0.5
v 0.6 0.1 -0.1
v 0.6 0.1 -0.3
v 0.6 0.2 -0.3
v 0.6 0.2 -0.4
v 0.6 0.3 -0.1
v 0.6 0.3 -0.3
v 0.6 0.4 -0.3
v 0.6 0.4 -0.4
v 0.6 1 0.4
v 0.6 1 -0.5
v 0.6 1.8 0.4
v 0.6 1.8 -0.5
v 0.6 2.6 0.1
v 0.6 2.6 -0.3
v 0.6 2.9 0.4
v 0.6 2.9 0.1
v 0.6 2.9 -0.3
v 0.6 2.9 -0.5
v 0.6 3.1 0.5
v 0.6 3.1 0.3
v 0.6 3.1 -0.5
v 0.6 3.2 0.4
v 0.6 3.2 0.3
v 0.6 3.2 -0.4
v 0.6 3.5 0.5
v 0.6 3.5 0.4
v 0.6 3.8 0.3
v 0.6 3.8 -0.4
v 0.6 3.9 0.5
v 0.6 3.9 -0.5
v 0.7 3.2 0.3
v 0.7 3.2 -0.4
v 0.7 3.8 0.3
v 0.7 3.8 -0.4
v 1.8 2.6 0.1
v 1.8 2.6 -0.3
v 1.8 2.9 0.1
v 1.8 2.9 -0.3
v -0.6 3.1 0.5
v -0.6 3.5 0.5
v -0.6 3.9 0.5
v -0.5 3 0.5
v -0.5 3.1 0.5
v -0.5 3.5 0.5
v -0.5 3.8 0.5
v -0.5 3.9 0.5
v -0.5 4 0.5
v -0.3 3.4 0.5
v -0.3 3.7 0.5
v -0.2 3.2 0.5
v -0.2 3.3 0.5
v -0.2 3.4 0.5
v -0.2 3.7 0.5
v 0.2 3.2 0.5
v 0.2 3.3 0.5
v 0.2 3.4 0.5
v 0.2 3.7 0.5
v 0.3 3.4 0.5
v 0.3 3.7 0.5
v 0.5 3 0.5
v 0.5 3.1 0.5
v 0.5 3.5 0.5
v 0.5 3.8 0.5
v 0.5 3.9 0.5
v 0.5 4 0.5
v 0.6 3.1 0.5
v 0.6 3.5 0.5
v 0.6 3.9 0.5
v -0.6 1 0.4
v -0.6 1.8 0.4
v -0.6 2.9 0.4
v -0.5 0 0.4
v -0.5 0.2 0.4
v -0.4 2.1 0.4
v -0.4 2.2 0.4
v -0.4 2.5 0.4
v -0.4 2.6 0.4
v -0.3 2.2 0.4
v -0.3 2.3 0.4
v -0.3 2.4 0.4
v -0.3 2.5 0.4
v -0.2 0 0.4
v -0.2 0.2 0.4
v -0.2 2.3 0.4
v -0.2 2.4 0.4
v -0.0999999 1 0.4
v -0.0999999 1.3 0.4
v -0.0999999 2.1 0.4
v -0.0999999 2.2 0.4
v -0.0999999 2.6 0.4
v -0.0999999 2.8 0.4
v 0.1 1 0.4
v 0.1 1.3 0.4
v 0.1 2.1 0.4
v 0.1 2.2 0.4
v 0.1 2.6 0.4
v 0.1 2.8 0.4
v 0.2 0 0.4
v 0.2 0.2 0.4
v 0.2 2.3 0.4
v 0.2 2.4 0.4
v 0.3 2.2 0.4
v 0.3 2.3 0.4
v 0.3 2.4 0.4
v 0.3 2.5 0.4
v 0.4 2.1 0.4
v 0.4 2.2 0.4
v 0.4 2.5 0.4
v 0.4 2.6 0.4
v 0.5 0 0.4
v 0.5 0.2 0.4
v 0.6 1 0.4
v 0.6 1.8 0.4
v 0.6 2.9 0.4
v -0.7 3.2 0.3
v -0.7 3.8 0.3
v -0.6 3.2 0.3
v -0.6 3.8 0.3
v -0.5 2.9 0.3
v -0.5 3 0.3
v -0.2 2.9 0.3
v -0.2 3 0.3
v 0.2 2.9 0.3
v 0.2 3 0.3
v 0.5 2.9 0.3
v 0.5 3 0.3
v 0.6 3.2 0.3
v 0.6 3.8 0.3
v 0.7 3.2 0.3
v 0.7 3.8 0.3
v -1.8 2.6 0.1
v -1.8 2.9 0.1
v -1.1 2.6 0.1
v -1.1 2.9 0.1
v -0.6 2.6 0.1
v -0.6 2.9 0.1
v -0.5 0.2 0.1
v -0.5 0.3 0.1
v -0.5 1 0.1
v -0.2 0.2 0.1
v -0.2 0.3 0.1
v -0.2 1 0.1
v 0.2 0.2 0.1
v 0.2 0.3 0.1
v 0.2 1 0.1
v 0.5 0.2 0.1
v 0.5 0.3 0.1
v 0.5 1 0.1
v 0.6 2.6 0.1
v 0.6 2.9 0.1
v 1.1 2.6 0.1
v 1.1 2.9 0.1
v 1.8 2.6 0.1
v 1.8 2.9 0.1
v -0.6 0.1 -0.1
v -0.6 0.3 -0.1
v -0.5 0.1 -0.1
v -0.5 0.3 -0.1
v 0.5 0.1 -0.1
v 0.5 0.3 -0.1
v 0.6 0.1 -0.1
v 0.6 0.3 -0.1
v -0.6 0.3 -0.3
v -0.6 0.4 -0.3
v -0.5 0.3 -0.3
v -0.5 0.4 -0.3
v 0.5 0.3 -0.3
v 0.5 0.4 -0.3
v 0.6 0.3 -0.3
v 0.6 0.4 -0.3
v -1.8 2.6 -0.3
v -1.8 2.9 -0.3
v -1.1 2.6 -0.3
v -1.1 2.9 -0.3
v -0.7 3.2 -0.3
v -0.7 3.8 -0.3
v -0.6 0.1 -0.3
v -0.6 0.2 -0.3
v -0.6 2.6 -0.3
v -0.6 2.9 -0.3
v -0.6 3.2 -0.3
v -0.6 3.8 -0.3
v -0.5 0 -0.3
v -0.5 0.1 -0.3
v -0.5 0.2 -0.3
v -0.5 0.3 -0.3
v -0.5 0.4 -0.3
v -0.5 1 -0.3
v -0.2 0 -0.3
v -0.2 0.3 -0.3
v -0.2 1 -0.3
v 0.2 0 -0.3
v 0.2 0.3 -0.3
v 0.2 1 -0.3
v 0.5 0 -0.3
v 0.5 0.1 -0.3
v 0.5 0.2 -0.3
v 0.5 0.3 -0.3
v 0.5 0.4 -0.3
v 0.5 1 -0.3
v 0.6 0.1 -0.3
v 0.6 0.2 -0.3
v 0.6 2.6 -0.3
v 0.6 2.9 -0.3
v 1.1 2.6 -0.3
v 1.1 2.9 -0.3
v 1.8 2.6 -0.3
v 1.8 2.9 -0.3
v -0.6 0.2 -0.4
v -0.6 0.4 -0.4
v -0.5 0.2 -0.4
v -0.5 0.4 -0.4
v -0.5 2.9 -0.4
v -0.5 3 -0.4
v 0.5 0.2 -0.4
v 0.5 0.4 -0.4
v 0.5 2.9 -0.4
v 0.5 3 -0.4
v 0.6 0.2 -0.4
v 0.6 0.4 -0.4
v 0.6 3.2 -0.4
v 0.6 3.8 -0.4
v 0.7 3.2 -0.4
v 0.7 3.8 -0.4
v -0.6 1 -0.5
v -0.6 1.8 -0.5
v -0.6 2.9 -0.5
v -0.6 3.1 -0.5
v -0.6 3.9 -0.5
v -0.5 3 -0.5
v -0.5 3.1 -0.5
v -0.5 3.8 -0.5
v -0.5 3.9 -0.5
v -0.5 4 -0.5
v -0.0999999 1 -0.5
v -0.0999999 1.3 -0.5
v 0.1 1 -0.5
v 0.1 1.3 -0.5
v 0.5 3 -0.5
v 0.5 3.1 -0.5
v 0.5 3.8 -0.5
v 0.5 3.9 -0.5
v 0.5 4 -0.5
v 0.6 1 -0.5
v 0.6 1.8 -0.5
v 0.6 2.9 -0.5
v 0.6 3.1 -0.5
v 0.6 3.9 -0.5
v -0.5 3.1 -0.6
v -0.5 3.8 -0.6
v 0.5 3.1 -0.6
v 0.5 3.8 -0.6
v -0.5 0 0.4
v -0.2 0 0.4
v 0.2 0 0.4
v 0.5 0 0.4
v -0.5 0 -0.3
v -0.2 0 -0.3
v 0.2 0 -0.3
v 0.5 0 -0.3
v -0.6 0.1 -0.1
v -0.5 0.1 -0.1
v 0.5 0.1 -0.1
v 0.6 0.1 -0.1
v -0.6 0.1 -0.3
v -0.5 0.1 -0.3
v 0.5 0.1 -0.3
v 0.6 0.1 -0.3
v -0.6 0.2 -0.3
v -0.5 0.2 -0.3
v 0.5 0.2 -0.3
v 0.6 0.2 -0.3
v -0.6 0.2 -0.4
v -0.5 0.2 -0.4
v 0.5 0.2 -0.4
v 0.6 0.2 -0.4
v -0.6 1 0.4
v -0.0999999 1 0.4
v 0.1 1 0.4
v 0.6 1 0.4
v -0.5 1 0.1
v -0.2 1 0.1
v 0.2 1 0.1
v 0.5 1 0.1
v -0.5 1 -0.3
v -0.2 1 -0.3
v 0.2 1 -0.3
v 0.5 1 -0.3
v -0.6 1 -0.5
v -0.0999999 1 -0.5
v 0.1 1 -0.5
v 0.6 1 -0.5
v -0.0999999 1.3 0.4
v 0.1 1.3 0.4
v -0.0999999 1.3 -0.5
v 0.1 1.3 -0.5
v -1.8 2.6 0.1
v -1.1 2.6 0.1
v -0.6 2.6 0.1
v 0.6 2.6 0.1
v 1.1 2.6 0.1
v 1.8 2.6 0.1
v -1.8 2.6 -0.3
v -1.1 2.6 -0.3
v -0.6 2.6 -0.3
v 0.6 2.6 -0.3
v 1.1 2.6 -0.3
v 1.8 2.6 -0.3
v -0.5 3 0.5
v 0.5 3 0.5
v -0.5 3 0.3
v -0.2 3 0.3
v 0.2 3 0.3
v 0.5 3 0.3
v -0.5 3 -0.4
v 0.5 3 -0.4
v -0.5 3 -0.5
v 0.5 3 -0.5
v -0.6 3.1 0.5
v -0.5 3.1 0.5
v 0.5 3.1 0.5
v 0.6 3.1 0.5
v -0.6 3.1 0.3
v -0.5 3.1 0.3
v 0.5 3.1 0.3
v 0.6 3.1 0.3
v -0.6 3.1 -0.5
v -0.5 3.1 -0.5
v 0.5 3.1 -0.5
v 0.6 3.1 -0.5
v -0.5 3.1 -0.6
v 0.5 3.1 -0.6
v -0.7 3.2 0.3
v -0.6 3.2 0.3
v 0.6 3.2 0.3
v 0.7 3.2 0.3
v -0.7 3.2 -0.3
v -0.6 3.2 -0.3
v 0.6 3.2 -0.4
v 0.7 3.2 -0.4
v -0.5 0.2 0.4
v -0.2 0.2 0.4
v 0.2 0.2 0.4
v 0.5 0.2 0.4
v -0.5 0.2 0.1
v -0.2 0.2 0.1
v 0.2 0.2 0.1
v 0.5 0.2 0.1
v -0.6 0.3 -0.1
v -0.5 0.3 -0.1
v 0.5 0.3 -0.1
v 0.6 0.3 -0.1
v -0.6 0.3 -0.3
v -0.5 0.3 -0.3
v 0.5 0.3 -0.3
v 0.6 0.3 -0.3
v -0.6 0.4 -0.3
v -0.5 0.4 -0.3
v 0.5 0.4 -0.3
v 0.6 0.4 -0.3
v -0.6 0.4 -0.4
v -0.5 0.4 -0.4
v 0.5 0.4 -0.4
v 0.6 0.4 -0.4
v -0.6 2.9 0.4
v 0.6 2.9 0.4
v -0.5 2.9 0.3
v -0.2 2.9 0.3
v 0.2 2.9 0.3
v 0.5 2.9 0.3
v -1.8 2.9 0.1
v -1.1 2.9 0.1
v -0.6 2.9 0.1
v 0.6 2.9 0.1
v 1.1 2.9 0.1
v 1.8 2.9 0.1
v -1.8 2.9 -0.3
v -1.1 2.9 -0.3
v -0.6 2.9 -0.3
v 0.6 2.9 -0.3
v 1.1 2.9 -0.3
v 1.8 2.9 -0.3
v -0.5 2.9 -0.4
v 0.5 2.9 -0.4
v -0.6 2.9 -0.5
v 0.6 2.9 -0.5
v -0.7 3.8 0.3
v -0.6 3.8 0.3
v 0.6 3.8 0.3
v 0.7 3.8 0.3
v -0.7 3.8 -0.3
v -0.6 3.8 -0.3
v 0.6 3.8 -0.4
v 0.7 3.8 -0.4
v -0.5 3.8 -0.5
v 0.5 3.8 -0.5
v -0.5 3.8 -0.6
v 0.5 3.8 -0.6
v -0.6 3.9 0.5
v -0.5 3.9 0.5
v 0.5 3.9 0.5
v 0.6 3.9 0.5
v -0.6 3.9 -0.5
v -0.5 3.9 -0.5
v 0.5 3.9 -0.5
v 0.6 3.9 -0.5
v -0.5 4 0.5
v 0.5 4 0.5
v -0.5 4 -0.5
v 0.5 4 -0.5

# faces
f 3/2/1 2/2/1 1/2/1
f 4/2/1 2/2/1 3/2/1
f 7/4/1 6/4/1 5/4/1
f 8/4/1 6/4/1 7/4/1
f 11/8/1 10/8/1 9/8/1
f 13/8/1 11/8/1 9/8/1
f 13/8/1 12/8/1 11/8/1
f 14/8/1 12/8/1 13/8/1
f 15/8/1 12/8/1 14/8/1
f 16/8/1 12/8/1 15/8/1
f 19/6/1 18/6/1 17/6/1
f 20/6/1 18/6/1 19/6/1
f 21/3/1 20/3/1 19/3/1
f 22/3/1 20/3/1 21/3/1
f 23/3/1 21/3/1 19/3/1
f 24/3/1 21/3/1 23/3/1
f 25/3/1 20/3/1 22/3/1
f 26/3/1 20/3/1 25/3/1
f 30/2/1 28/2/1 27/2/1
f 31/4/1 29/4/1 28/4/1
f 31/2/1 28/2/1 30/2/1
f 32/4/1 29/4/1 31/4/1
f 33/2/1 30/2/1 27/2/1
f 34/4/1 31/4/1 30/4/1
f 34/2/1 30/2/1 33/2/1
f 35/4/1 34/4/1 33/4/1
f 35/4/1 31/4/1 34/4/1
f 36/4/1 29/4/1 32/4/1
f 37/4/1 35/4/1 33/4/1
f 37/4/1 36/4/1 35/4/1
f 38/4/1 29/4/1 36/4/1
f 38/4/1 36/4/1 37/4/1
f 41/5/1 40/5/1 39/5/1
f 42/5/1 40/5/1 41/5/1
f 43/5/1 41/5/1 39/5/1
f 44/5/1 41/5/1 43/5/1
f 45/5/1 41/5/1 44/5/1
f 46/5/1 41/5/1 45/5/1
f 48/2/1 46/2/1 45/2/1
f 48/2/1 47/2/1 46/2/1
f 49/2/1 48/2/1 45/2/1
f 50/2/1 48/2/1 49/2/1
f 54/3/1 52/3/1 51/3/1
f 55/3/1 52/3/1 54/3/1
f 57/2/1 54/2/1 53/2/1
f 58/4/1 56/4/1 55/4/1
f 58/2/1 54/2/1 57/2/1
f 58/4/1 55/4/1 54/4/1
f 59/4/1 56/4/1 58/4/1
f 61/4/1 60/4/1 59/4/1
f 62/4/1 60/4/1 61/4/1
f 65/4/1 64/4/1 63/4/1
f 66/4/1 64/4/1 65/4/1
f 69/6/1 68/6/1 67/6/1
f 70/6/1 68/6/1 69/6/1
f 73/5/1 72/5/1 71/5/1
f 74/5/1 72/5/1 73/5/1
f 75/5/1 72/5/1 74/5/1
f 76/5/1 72/5/1 75/5/1
f 77/2/1 76/2/1 75/2/1
f 78/2/1 76/2/1 77/2/1
f 81/8/1 80/8/1 79/8/1
f 82/8/1 80/8/1 81/8/1
f 83/8/1 80/8/1 82/8/1
f 84/8/2 85/8/2 86/8/2
f 86/8/2 85/8/2 87/8/2
f 87/8/2 85/8/2 88/8/2
f 89/5/2 90/5/2 91/5/2
f 91/5/2 90/5/2 92/5/2
f 92/5/2 90/5/2 93/5/2
f 93/5/2 90/5/2 94/5/2
f 93/2/2 94/2/2 95/2/2
f 95/2/2 94/2/2 96/2/2
f 97/6/2 98/6/2 99/6/2
f 99/6/2 98/6/2 100/6/2
f 101/5/2 102/5/2 103/5/2
f 103/5/2 102/5/2 104/5/2
f 101/5/2 103/5/2 105/5/2
f 105/5/2 103/5/2 106/5/2
f 106/5/2 103/5/2 107/5/2
f 107/5/2 103/5/2 108/5/2
f 107/2/2 108/2/2 110/2/2
f 108/2/2 109/2/2 110/2/2
f 107/2/2 110/2/2 111/2/2
f 111/2/2 110/2/2 112/2/2
f 113/3/2 114/3/2 116/3/2
f 116/3/2 114/3/2 117/3/2
f 115/2/2 116/2/2 119/2/2
f 117/4/2 118/4/2 120/4/2
f 119/2/2 116/2/2 120/2/2
f 116/4/2 117/4/2 120/4/2
f 120/4/2 118/4/2 121/4/2
f 121/4/2 122/4/2 123/4/2
f 123/4/2 122/4/2 124/4/2
f 125/4/2 126/4/2 127/4/2
f 127/4/2 126/4/2 128/4/2
f 129/8/2 130/8/2 131/8/2
f 129/8/2 131/8/2 133/8/2
f 131/8/2 132/8/2 133/8/2
f 133/8/2 132/8/2 134/8/2
f 134/8/2 132/8/2 135/8/2
f 135/8/2 132/8/2 136/8/2
f 137/6/2 138/6/2 139/6/2
f 139/6/2 138/6/2 140/6/2
f 139/3/2 140/3/2 141/3/2
f 141/3/2 140/3/2 142/3/2
f 139/3/2 141/3/2 143/3/2
f 143/3/2 141/3/2 144/3/2
f 142/3/2 140/3/2 145/3/2
f 145/3/2 140/3/2 146/3/2
f 147/2/2 148/2/2 150/2/2
f 148/4/2 149/4/2 151/4/2
f 150/2/2 148/2/2 151/2/2
f 151/4/2 149/4/2 152/4/2
f 147/2/2 150/2/2 153/2/2
f 150/4/2 151/4/2 154/4/2
f 153/2/2 150/2/2 154/2/2
f 153/4/2 154/4/2 155/4/2
f 154/4/2 151/4/2 155/4/2
f 152/4/2 149/4/2 156/4/2
f 153/4/2 155/4/2 157/4/2
f 155/4/2 156/4/2 157/4/2
f 156/4/2 149/4/2 158/4/2
f 157/4/2 156/4/2 158/4/2
f 159/4/2 160/4/2 161/4/2
f 161/4/2 160/4/2 162/4/2
f 163/2/2 164/2/2 165/2/2
f 165/2/2 164/2/2 166/2/2
f 171/2/3 168/2/3 167/2/3
f 172/4/3 169/4/3 168/4/3
f 172/2/3 168/2/3 171/2/3
f 173/4/3 169/4/3 172/4/3
f 174/4/3 169/4/3 173/4/3
f 176/2/3 171/2/3 170/2/3
f 176/2/3 172/2/3 171/2/3
f 176/2/3 173/2/3 172/2/3
f 177/2/3 173/2/3 176/2/3
f 178/2/3 176/2/3 170/2/3
f 179/2/3 176/2/3 178/2/3
f 180/9/3 177/9/3 176/9/3
f 180/2/3 176/2/3 179/2/3
f 181/2/3 173/2/3 177/2/3
f 181/9/3 177/9/3 180/9/3
f 182/7/3 179/7/3 178/7/3
f 182/2/3 178/2/3 170/2/3
f 183/2/3 180/2/3 179/2/3
f 183/7/3 179/7/3 182/7/3
f 183/2/3 181/2/3 180/2/3
f 184/2/3 181/2/3 183/2/3
f 185/2/3 173/2/3 181/2/3
f 185/2/3 181/2/3 184/2/3
f 186/2/3 184/2/3 183/2/3
f 186/2/3 183/2/3 182/2/3
f 186/9/3 185/9/3 184/9/3
f 187/2/3 173/2/3 185/2/3
f 187/9/3 185/9/3 186/9/3
f 188/2/3 182/2/3 170/2/3
f 188/2/3 186/2/3 182/2/3
f 188/2/3 187/2/3 186/2/3
f 189/2/3 187/2/3 188/2/3
f 190/2/3 187/2/3 189/2/3
f 191/4/3 175/4/3 174/4/3
f 191/2/3 187/2/3 190/2/3
f 191/4/3 174/4/3 173/4/3
f 191/2/3 173/2/3 187/2/3
f 192/4/3 175/4/3 191/4/3
f 193/4/3 175/4/3 192/4/3
f 194/2/3 190/2/3 189/2/3
f 195/4/3 192/4/3 191/4/3
f 195/2/3 190/2/3 194/2/3
f 195/4/3 191/4/3 190/4/3
f 196/4/3 192/4/3 195/4/3
f 202/3/3 199/3/3 198/3/3
f 203/3/3 199/3/3 202/3/3
f 204/3/3 199/3/3 203/3/3
f 205/3/3 199/3/3 204/3/3
f 206/1/3 203/1/3 202/1/3
f 206/3/3 204/3/3 203/3/3
f 207/3/3 204/3/3 206/3/3
f 208/3/3 204/3/3 207/3/3
f 209/1/3 205/1/3 204/1/3
f 209/3/3 204/3/3 208/3/3
f 210/5/3 201/5/3 200/5/3
f 211/5/3 201/5/3 210/5/3
f 212/3/3 208/3/3 207/3/3
f 212/1/3 207/1/3 206/1/3
f 213/1/3 209/1/3 208/1/3
f 213/3/3 208/3/3 212/3/3
f 214/6/3 198/6/3 197/6/3
f 215/6/3 198/6/3 214/6/3
f 216/3/3 202/3/3 198/3/3
f 216/1/3 213/1/3 212/1/3
f 216/1/3 206/1/3 202/1/3
f 216/1/3 212/1/3 206/1/3
f 217/1/3 213/1/3 216/1/3
f 218/1/3 209/1/3 213/1/3
f 218/1/3 213/1/3 217/1/3
f 218/1/3 205/1/3 209/1/3
f 218/3/3 199/3/3 205/3/3
f 219/3/3 199/3/3 218/3/3
f 221/6/3 198/6/3 215/6/3
f 222/3/3 217/3/3 216/3/3
f 222/3/3 216/3/3 198/3/3
f 223/1/3 219/1/3 218/1/3
f 223/3/3 217/3/3 222/3/3
f 223/1/3 218/1/3 217/1/3
f 224/1/3 219/1/3 223/1/3
f 225/3/3 199/3/3 219/3/3
f 225/1/3 219/1/3 224/1/3
f 228/1/3 224/1/3 223/1/3
f 228/1/3 223/1/3 222/1/3
f 229/1/3 224/1/3 228/1/3
f 230/1/3 228/1/3 222/1/3
f 231/3/3 229/3/3 228/3/3
f 231/1/3 228/1/3 230/1/3
f 232/1/3 224/1/3 229/1/3
f 232/3/3 229/3/3 231/3/3
f 233/1/3 224/1/3 232/1/3
f 234/3/3 222/3/3 198/3/3
f 234/1/3 230/1/3 222/1/3
f 235/3/3 231/3/3 230/3/3
f 235/1/3 230/1/3 234/1/3
f 235/3/3 233/3/3 232/3/3
f 235/3/3 232/3/3 231/3/3
f 236/1/3 224/1/3 233/1/3
f 236/3/3 233/3/3 235/3/3
f 237/3/3 225/3/3 224/3/3
f 237/1/3 224/1/3 236/1/3
f 238/5/3 227/5/3 226/5/3
f 239/5/3 227/5/3 238/5/3
f 240/6/3 221/6/3 220/6/3
f 241/6/3 198/6/3 221/6/3
f 241/6/3 221/6/3 240/6/3
f 241/3/3 235/3/3 234/3/3
f 241/3/3 237/3/3 236/3/3
f 241/3/3 234/3/3 198/3/3
f 241/3/3 236/3/3 235/3/3
f 242/3/3 199/3/3 225/3/3
f 242/3/3 237/3/3 241/3/3
f 242/3/3 225/3/3 237/3/3
f 245/4/3 244/4/3 243/4/3
f 246/4/3 244/4/3 245/4/3
f 249/3/3 248/3/3 247/3/3
f 250/3/3 248/3/3 249/3/3
f 251/2/3 250/2/3 249/2/3
f 252/2/3 250/2/3 251/2/3
f 253/3/3 252/3/3 251/3/3
f 254/3/3 252/3/3 253/3/3
f 257/4/3 256/4/3 255/4/3
f 258/4/3 256/4/3 257/4/3
f 261/2/3 260/2/3 259/2/3
f 262/2/3 260/2/3 261/2/3
f 263/3/3 262/3/3 261/3/3
f 264/3/3 262/3/3 263/3/3
f 268/5/3 266/5/3 265/5/3
f 269/2/3 267/2/3 266/2/3
f 269/5/3 266/5/3 268/5/3
f 270/2/3 267/2/3 269/2/3
f 274/5/3 272/5/3 271/5/3
f 275/2/3 273/2/3 272/2/3
f 275/5/3 272/5/3 274/5/3
f 276/2/3 273/2/3 275/2/3
f 279/3/3 278/3/3 277/3/3
f 280/3/3 278/3/3 279/3/3
f 281/2/3 280/2/3 279/2/3
f 282/2/3 280/2/3 281/2/3
f 285/8/3 284/8/3 283/8/3
f 286/8/3 284/8/3 285/8/3
f 289/8/3 288/8/3 287/8/3
f 290/8/3 288/8/3 289/8/3
f 293/8/3 292/8/3 291/8/3
f 294/8/3 292/8/3 293/8/3
f 297/8/3 296/8/3 295/8/3
f 298/8/3 296/8/3 297/8/3
f 299/2/4 300/2/4 301/2/4
f 301/2/4 300/2/4 302/2/4
f 301/3/4 302/3/4 307/3/4
f 307/3/4 302/3/4 308/3/4
f 303/4/4 304/4/4 309/4/4
f 309/4/4 304/4/4 310/4/4
f 305/8/4 306/8/4 312/8/4
f 312/8/4 306/8/4 313/8/4
f 311/5/4 312/5/4 317/5/4
f 312/5/4 313/5/4 317/5/4
f 313/5/4 314/5/4 317/5/4
f 315/2/4 316/2/4 318/2/4
f 317/5/4 314/5/4 318/5/4
f 314/2/4 315/2/4 318/2/4
f 318/2/4 316/2/4 319/2/4
f 320/5/4 321/5/4 323/5/4
f 323/5/4 321/5/4 324/5/4
f 324/5/4 321/5/4 325/5/4
f 321/2/4 322/2/4 326/2/4
f 325/5/4 321/5/4 326/5/4
f 326/2/4 322/2/4 327/2/4
f 327/2/4 322/2/4 328/2/4
f 324/8/4 325/8/4 329/8/4
f 329/8/4 325/8/4 330/8/4
f 331/3/4 332/3/4 333/3/4
f 333/3/4 332/3/4 334/3/4
f 333/2/4 334/2/4 335/2/4
f 335/2/4 334/2/4 336/2/4
f 337/8/4 338/8/4 339/8/4
f 339/8/4 338/8/4 340/8/4
f 341/3/4 342/3/4 345/3/4
f 345/3/4 342/3/4 346/3/4
f 343/8/4 344/8/4 347/8/4
f 347/8/4 344/8/4 348/8/4
f 349/4/4 350/4/4 351/4/4
f 351/4/4 350/4/4 352/4/4
f 356/4/4 357/4/4 359/4/4
f 359/4/4 357/4/4 360/4/4
f 360/4/4 357/4/4 361/4/4
f 353/6/4 354/6/4 363/6/4
f 363/6/4 354/6/4 364/6/4
f 364/6/4 354/6/4 366/6/4
f 358/4/4 359/4/4 367/4/4
f 367/4/4 359/4/4 368/4/4
f 361/4/4 362/4/4 369/4/4
f 360/4/4 361/4/4 369/4/4
f 369/4/4 362/4/4 370/4/4
f 370/4/4 362/4/4 371/4/4
f 365/6/4 366/6/4 372/6/4
f 354/3/4 355/3/4 373/3/4
f 372/6/4 366/6/4 373/6/4
f 366/6/4 354/6/4 373/6/4
f 373/3/4 355/3/4 374/3/4
f 369/4/4 370/4/4 375/4/4
f 368/4/4 369/4/4 375/4/4
f 375/4/4 370/4/4 376/4/4
f 377/4/4 378/4/4 379/4/4
f 379/4/4 378/4/4 380/4/4
f 385/5/5 382/5/5 381/5/5
f 386/5/5 382/5/5 385/5/5
f 387/5/5 384/5/5 383/5/5
f 388/5/5 384/5/5 387/5/5
f 393/8/5 390/8/5 389/8/5
f 394/8/5 390/8/5 393/8/5
f 395/8/5 392/8/5 391/8/5
f 396/8/5 392/8/5 395/8/5
f 401/8/5 398/8/5 397/8/5
f 402/8/5 398/8/5 401/8/5
f 403/8/5 400/8/5 399/8/5
f 404/8/5 400/8/5 403/8/5
f 409/6/5 406/6/5 405/6/5
f 410/6/5 406/6/5 409/6/5
f 411/6/5 408/6/5 407/6/5
f 412/6/5 408/6/5 411/6/5
f 413/6/5 409/6/5 405/6/5
f 414/6/5 406/6/5 410/6/5
f 415/6/5 411/6/5 407/6/5
f 416/6/5 408/6/5 412/6/5
f 417/6/5 413/6/5 405/6/5
f 417/6/5 414/6/5 413/6/5
f 418/6/5 406/6/5 414/6/5
f 418/6/5 414/6/5 417/6/5
f 419/6/5 416/6/5 415/6/5
f 419/6/5 415/6/5 407/6/5
f 420/6/5 408/6/5 416/6/5
f 420/6/5 416/6/5 419/6/5
f 423/6/5 422/6/5 421/6/5
f 424/6/5 422/6/5 423/6/5
f 431/2/5 426/2/5 425/2/5
f 432/3/5 427/3/5 426/3/5
f 432/2/5 426/2/5 431/2/5
f 433/3/5 427/3/5 432/3/5
f 434/3/5 429/3/5 428/3/5
f 435/2/5 430/2/5 429/2/5
f 435/3/5 429/3/5 434/3/5
f 436/2/5 430/2/5 435/2/5
f 439/2/5 438/2/5 437/2/5
f 440/2/5 438/2/5 439/2/5
f 441/2/5 438/2/5 440/2/5
f 442/2/5 438/2/5 441/2/5
f 445/4/5 444/4/5 443/4/5
f 446/4/5 444/4/5 445/4/5
f 451/2/5 448/2/5 447/2/5
f 452/2/5 448/2/5 451/2/5
f 453/2/5 450/2/5 449/2/5
f 454/2/5 450/2/5 453/2/5
f 455/4/5 452/4/5 451/4/5
f 456/4/5 452/4/5 455/4/5
f 457/4/5 454/4/5 453/4/5
f 458/4/5 454/4/5 457/4/5
f 459/4/5 457/4/5 456/4/5
f 460/4/5 457/4/5 459/4/5
f 465/4/5 462/4/5 461/4/5
f 466/4/5 462/4/5 465/4/5
f 467/4/5 464/4/5 463/4/5
f 468/4/5 464/4/5 467/4/5
f 469/5/6 470/5/6 473/5/6
f 473/5/6 470/5/6 474/5/6
f 471/5/6 472/5/6 475/5/6
f 475/5/6 472/5/6 476/5/6
f 477/8/6 478/8/6 481/8/6
f 481/8/6 478/8/6 482/8/6
f 479/8/6 480/8/6 483/8/6
f 483/8/6 480/8/6 484/8/6
f 485/8/6 486/8/6 489/8/6
f 489/8/6 486/8/6 490/8/6
f 487/8/6 488/8/6 491/8/6
f 491/8/6 488/8/6 492/8/6
f 493/3/6 494/3/6 495/3/6
f 495/3/6 494/3/6 496/3/6
f 496/3/6 494/3/6 497/3/6
f 497/3/6 494/3/6 498/3/6
f 493/3/6 495/3/6 501/3/6
f 498/3/6 494/3/6 502/3/6
f 499/2/6 500/2/6 505/2/6
f 500/3/6 501/3/6 506/3/6
f 505/2/6 500/2/6 506/2/6
f 501/3/6 495/3/6 507/3/6
f 506/3/6 501/3/6 507/3/6
f 498/3/6 502/3/6 508/3/6
f 502/3/6 503/3/6 508/3/6
f 503/2/6 504/2/6 509/2/6
f 508/3/6 503/3/6 509/3/6
f 509/2/6 504/2/6 510/2/6
f 507/3/6 495/3/6 511/3/6
f 498/3/6 508/3/6 512/3/6
f 507/3/6 511/3/6 513/3/6
f 511/3/6 512/3/6 513/3/6
f 512/3/6 508/3/6 514/3/6
f 513/3/6 512/3/6 514/3/6
f 515/4/6 516/4/6 519/4/6
f 519/4/6 516/4/6 520/4/6
f 517/4/6 518/4/6 521/4/6
f 521/4/6 518/4/6 522/4/6
f 523/4/6 524/4/6 525/4/6
f 525/4/6 524/4/6 526/4/6
f 527/4/6 528/4/6 531/4/6
f 531/4/6 528/4/6 532/4/6
f 529/4/6 530/4/6 533/4/6
f 533/4/6 530/4/6 534/4/6
f 535/4/6 536/4/6 537/4/6
f 537/4/6 536/4/6 538/4/6
